# xmcd
#
# Track frame offsets: 
#        150
#        17445
#        33425
#        50250
#        67993
#        89513
#        106248
#        126928
#        144625
#        160203
#
# Disc length: 2404 seconds
#
# Revision: 4
# Processed by: cddbd v1.4PL0 Copyright (c) Steve Scherf et al.
# Submitted via: ExactAudioCopy v0.90b4
#
DISCID=7e09620a
DTITLE=James, Etta - Stickin' to My Guns
DYEAR=1990
DGENRE=Blues
TTITLE0=Whatever Get's You Through the Night
TTITLE1=Love to Burn
TTITLE2=The Blues Don't Care
TTITLE3=Your Good Thing (Is About to End)
TTITLE4=Get Funky
TTITLE5=Beware
TTITLE6=Out of the Rain
TTITLE7=Stolen Affection
TTITLE8=A Fool in Love
TTITLE9=I've Got Dreams to Remember
EXTD=
EXTT0=
EXTT1=
EXTT2=
EXTT3=
EXTT4=
EXTT5=
EXTT6=
EXTT7=
EXTT8=
EXTT9=
PLAYORDER=
